<?xml version="1.0" encoding="UTF-8" standalone="no"?>
<svg
   xmlns:dc="http://purl.org/dc/elements/1.1/"
   xmlns:cc="http://creativecommons.org/ns#"
   xmlns:rdf="http://www.w3.org/1999/02/22-rdf-syntax-ns#"
   xmlns:svg="http://www.w3.org/2000/svg"
   xmlns="http://www.w3.org/2000/svg"
   xmlns:sodipodi="http://sodipodi.sourceforge.net/DTD/sodipodi-0.dtd"
   xmlns:inkscape="http://www.inkscape.org/namespaces/inkscape"
   height="16.01"
   version="1.1"
   width="16"
   id="svg6"
   sodipodi:docname="BlackArch-Dos.svg"
   inkscape:version="0.92.4 5da689c313, 2019-01-14">
  <defs
     id="defs10" />
  <sodipodi:namedview
     pagecolor="#ffffff"
     bordercolor="#666666"
     borderopacity="1"
     objecttolerance="10"
     gridtolerance="10"
     guidetolerance="10"
     inkscape:pageopacity="0"
     inkscape:pageshadow="2"
     inkscape:window-width="857"
     inkscape:window-height="480"
     id="namedview8"
     showgrid="false"
     inkscape:zoom="14.740787"
     inkscape:cx="7.8759367"
     inkscape:cy="8.0050002"
     inkscape:window-x="0"
     inkscape:window-y="27"
     inkscape:window-maximized="0"
     inkscape:current-layer="layer10" />
  <metadata
     id="metadata90">
    <rdf:RDF>
      <cc:Work
         rdf:about="">
        <dc:format>image/svg+xml</dc:format>
        <dc:type
           rdf:resource="http://purl.org/dc/dcmitype/StillImage" />
      </cc:Work>
    </rdf:RDF>
  </metadata>
  <g
     inkscape:groupmode="layer"
     id="layer10"
     inkscape:label="devices"
     transform="translate(258.9998,-446.99085)">
    <path
       inkscape:connector-curvature="0"
       d="m -251.9373,447 c -0.4543,0.0495 -0.88397,0.2214 -1.25,0.5 -0.48804,0.37146 -0.8125,0.95486 -0.8125,1.6875 l 0,5.3125 c 0,0 0.23582,0.50712 0.5,0.50712 0.26418,0 0.5,-0.50712 0.5,-0.50712 l 0,-5.3125 c 0,-0.4491 0.17164,-0.70389 0.4375,-0.90625 0.26586,-0.20236 0.66376,-0.30023 1.0625,-0.28125 0.39874,0.019 0.78428,0.15409 1.0625,0.40625 0.27822,0.25216 0.46875,0.5845 0.46875,1.125 0,2.1653 1.46382,3.50909 3,3.46875 0.85672,-0.0225 1.68825,-0.47696 2.25,-1.3125 l -0.5625,-1 c -0.37537,0.9157 -1.06785,1.29541 -1.71875,1.3125 -0.96046,0.0252 -1.96875,-0.72975 -1.96875,-2.46875 0,-0.79197 -0.33682,-1.44388 -0.8125,-1.875 -0.47568,-0.43112 -1.08104,-0.62738 -1.6875,-0.65625 -0.15162,-0.007 -0.31732,-0.0165 -0.46875,0 z m 6.9375,2 c 0,0.0455 8.9e-4,0.0807 0,0.125 l 0.78125,1.375 c 0.0114,-0.0408 0.0208,-0.0833 0.0312,-0.125 z m 0,0.34375 c -0.006,0.10599 -0.0202,0.21386 -0.0312,0.3125 l 0.71875,1.21875 c 0.0234,-0.0625 0.0415,-0.12233 0.0625,-0.1875 z m -0.0625,0.5 c -0.0138,0.0899 -0.0444,0.16659 -0.0625,0.25 l 0.65625,1.125 c 0.0293,-0.0609 0.067,-0.12359 0.0937,-0.1875 z m -0.0937,0.4375 c -0.0237,0.0889 -0.0654,0.16899 -0.0937,0.25 l 0.59375,1.03125 c 0.0401,-0.0651 0.088,-0.1182 0.125,-0.1875 z"
       id="path23000"
       sodipodi:nodetypes="ssccsccscssscccsscscccccccccccccccccccc"
       color="#000000"
       fill="#AA0D0D"
       style="fill:#467ecb;fill-opacity:1" />
    <rect
       height="8"
       id="rect23032"
       rx="0.727"
       width="7"
       x="-257"
       y="453"
       fill="#AA0D0D"
       color="#000000"
       style="fill:#467ecb;fill-opacity:1" />
  </g>
</svg>
