<?xml version="1.0" encoding="UTF-8" standalone="no"?>
<svg
   xmlns:dc="http://purl.org/dc/elements/1.1/"
   xmlns:cc="http://creativecommons.org/ns#"
   xmlns:rdf="http://www.w3.org/1999/02/22-rdf-syntax-ns#"
   xmlns:svg="http://www.w3.org/2000/svg"
   xmlns="http://www.w3.org/2000/svg"
   xmlns:sodipodi="http://sodipodi.sourceforge.net/DTD/sodipodi-0.dtd"
   xmlns:inkscape="http://www.inkscape.org/namespaces/inkscape"
   width="16"
   height="16"
   fill="#AA0D0D"
   version="1.1"
   id="svg6"
   sodipodi:docname="BlackArch-Automation.svg"
   inkscape:version="0.92.4 5da689c313, 2019-01-14">
  <defs
     id="defs10" />
  <sodipodi:namedview
     pagecolor="#ffffff"
     bordercolor="#666666"
     borderopacity="1"
     objecttolerance="10"
     gridtolerance="10"
     guidetolerance="10"
     inkscape:pageopacity="0"
     inkscape:pageshadow="2"
     inkscape:window-width="1920"
     inkscape:window-height="1025"
     id="namedview8"
     showgrid="false"
     inkscape:zoom="14.75"
     inkscape:cx="-1.0006098"
     inkscape:cy="8"
     inkscape:window-x="0"
     inkscape:window-y="27"
     inkscape:window-maximized="1"
     inkscape:current-layer="g4953" />
  <metadata
     id="metadata90">
    <rdf:RDF>
      <cc:Work
         rdf:about="">
        <dc:format>image/svg+xml</dc:format>
        <dc:type
           rdf:resource="http://purl.org/dc/dcmitype/StillImage" />
      </cc:Work>
    </rdf:RDF>
  </metadata>
  <g
     inkscape:label="categories"
     inkscape:groupmode="layer"
     id="g4953"
     transform="translate(-522.0002,-462)">
    <path
       inkscape:connector-curvature="0"
       sodipodi:nodetypes="cccccccccccccccc"
       id="rect7157"
       d="m 529.99708,470 c -3.99844,0 -5.99766,3 -5.99766,6 l -1.74932,0 c -0.2499,0 -0.2499,0.15712 -0.2499,0.25 l 0,1.5 c 0,0.25 0.13814,0.25 0.2499,0.25 l 15.49396,0 c 0.19535,0.006 0.2499,-0.12948 0.2499,-0.25 l 0,-1.5 c 0.0212,-0.14605 0,-0.25 -0.2499,-0.25 l -1.74932,0 c 0,-3 -1.99922,-6 -5.99766,-6 z m 0,3 c 2.3501,0 2.99883,1.76177 2.99883,3 l -5.99766,0 c 0,-1.19769 0.70253,-3 2.99883,-3 z"
       fill="#AA0D0D"
       fill-rule="evenodd"
       style="fill:#467ecb;fill-opacity:1" />
    <path
       inkscape:connector-curvature="0"
       sodipodi:nodetypes="sccscccssccccss"
       id="path3908-6"
       d="m 536.98911,462.59983 c -0.28315,-0.24009 -0.6238,-0.41924 -0.96653,-0.5613 l -0.0217,2.23198 c -0.005,0.45867 -0.4519,0.72949 -1.00572,0.72949 l -0.99961,0 c -0.55376,-0.007 -1.00306,-0.30935 -0.9986,-0.76802 L 533.01865,462 c -0.34541,0.13322 -0.68945,0.3036 -0.9772,0.53638 -1.37728,1.11412 -1.39514,2.94888 -0.0399,4.09805 0.28315,0.24009 0.6238,0.41924 0.96652,0.56131 0.0278,0.0113 0.0278,2.05426 0.0278,2.05426 1.48949,0.75 2.35093,1.75 2.99883,2.75 l 0,-4.74827 c 0.3454,-0.13322 0.66671,-0.32107 0.95447,-0.55384 1.37727,-1.11412 1.39514,-2.94889 0.0399,-4.09806 z"
       color="#000000"
       stroke-width="3"
       fill="#AA0D0D"
       style="fill:#467ecb;fill-opacity:1" />
  </g>
</svg>
