<?xml version="1.0" encoding="UTF-8" standalone="no"?>
<svg
   xmlns:osb="http://www.openswatchbook.org/uri/2009/osb"
   xmlns:dc="http://purl.org/dc/elements/1.1/"
   xmlns:cc="http://creativecommons.org/ns#"
   xmlns:rdf="http://www.w3.org/1999/02/22-rdf-syntax-ns#"
   xmlns:svg="http://www.w3.org/2000/svg"
   xmlns="http://www.w3.org/2000/svg"
   xmlns:sodipodi="http://sodipodi.sourceforge.net/DTD/sodipodi-0.dtd"
   xmlns:inkscape="http://www.inkscape.org/namespaces/inkscape"
   height="16"
   version="1.1"
   width="16"
   enable-background="new"
   id="svg3797"
   sodipodi:docname="BlackArch-Misc.svg"
   inkscape:version="0.92.4 5da689c313, 2019-01-14">
  <sodipodi:namedview
     pagecolor="#ffffff"
     bordercolor="#666666"
     borderopacity="1"
     objecttolerance="10"
     gridtolerance="10"
     guidetolerance="10"
     inkscape:pageopacity="0"
     inkscape:pageshadow="2"
     inkscape:window-width="1920"
     inkscape:window-height="1025"
     id="namedview3799"
     showgrid="false"
     inkscape:zoom="9.1813396"
     inkscape:cx="-3.0280459"
     inkscape:cy="-8.5800403"
     inkscape:window-x="0"
     inkscape:window-y="27"
     inkscape:window-maximized="1"
     inkscape:current-layer="layer9" />
  <metadata
     id="metadata90">
    <rdf:RDF>
      <cc:Work
         rdf:about="">
        <dc:format>image/svg+xml</dc:format>
        <dc:type
           rdf:resource="http://purl.org/dc/dcmitype/StillImage" />
      </cc:Work>
    </rdf:RDF>
  </metadata>
  <defs
     id="defs7386">
    <linearGradient
       id="linearGradient5606"
       osb:paint="solid">
      <stop
         id="stop5608" />
    </linearGradient>
  </defs>
  <g
     inkscape:groupmode="layer"
     id="layer9"
     inkscape:label="status"
     transform="translate(-481.0002,223)">
    <path
       inkscape:connector-curvature="0"
       d="m 482.00045,-220 0,0.9375 0,1.0625 4,0 c 0.5713,0 1,0.4287 1,1 l 0,4 c 0,1.6447 1.3553,3 3,3 l 5,0 0,-2 -5,0 c -0.5713,0 -1,-0.4287 -1,-1 l 0,-4 c 0,-1.6447 -1.3553,-3 -3,-3 z"
       id="path4544-6"
       sodipodi:nodetypes="cccssssccssssc"
       fill="#AA0D0D"
       color="#AA0D0D"
       style="fill:#467ecb;fill-opacity:1" />
    <path
       inkscape:connector-curvature="0"
       d="m 490.00045,-220 c -0.22957,0 -0.44085,0.0438 -0.65625,0.0937 0.4813,0.5511 0.86125,1.1776 1.0312,1.9062 l 4.625,0 0,-2 -5,0 z m -8,10 4,0 c 0.22957,0 0.44085,-0.0438 0.65625,-0.0937 -0.4813,-0.55115 -0.86125,-1.1777 -1.0312,-1.9063 l -3.62505,0 z"
       id="path4544-1-5"
       sodipodi:nodetypes="ccccccccscccc"
       fill="#AA0D0D"
       color="#AA0D0D"
       style="fill:#467ecb;fill-opacity:1" />
    <path
       inkscape:connector-curvature="0"
       d="m 493.00045,-222 0,6 4,-3 z"
       id="path3003-08"
       fill="#AA0D0D"
       style="fill:#467ecb;fill-opacity:1" />
    <path
       inkscape:connector-curvature="0"
       d="m 493.00045,-214 0,6 4,-3 z"
       id="path3773"
       fill="#AA0D0D"
       style="fill:#467ecb;fill-opacity:1" />
  </g>
</svg>
